<?xml version="1.0" encoding="UTF-8" standalone="no"?>
<!-- Created with Inkscape (http://www.inkscape.org/) -->

<svg
   width="244.59232mm"
   height="123.57453mm"
   viewBox="0 0 244.59232 123.57453"
   version="1.1"
   id="svg5"
   xmlns:xlink="http://www.w3.org/1999/xlink"
   xmlns="http://www.w3.org/2000/svg"
   xmlns:svg="http://www.w3.org/2000/svg">
  <defs
     id="defs2">
    <rect
       x="818.16071"
       y="447.66229"
       width="21.018402"
       height="31.769325"
       id="rect24984" />
    <marker
       style="overflow:visible"
       id="TriangleStart"
       refX="0"
       refY="0"
       orient="auto-start-reverse"
       markerWidth="5.3244081"
       markerHeight="6.155385"
       viewBox="0 0 5.3244081 6.1553851"
       preserveAspectRatio="xMidYMid">
      <path
         transform="scale(0.5)"
         style="fill:context-stroke;fill-rule:evenodd;stroke:context-stroke;stroke-width:1pt"
         d="M 5.77,0 -2.88,5 V -5 Z"
         id="path135" />
    </marker>
    <rect
       x="179.84904"
       y="695.25574"
       width="711.29156"
       height="89.663948"
       id="rect1987" />
    <rect
       x="183.47916"
       y="601.85126"
       width="731.44781"
       height="94.03978"
       id="rect1981" />
    <rect
       x="185.86433"
       y="506.20651"
       width="688.72351"
       height="60.454163"
       id="rect1975" />
    <rect
       x="185.52869"
       y="371.59293"
       width="560.47668"
       height="124.21513"
       id="rect1969" />
    <rect
       x="186.46281"
       y="117.96535"
       width="577.27008"
       height="64.426025"
       id="rect1043" />
    <rect
       x="186.46281"
       y="117.96535"
       width="457.16986"
       height="64.836563"
       id="rect1043-5" />
    <rect
       x="179.84904"
       y="695.25574"
       width="711.29156"
       height="89.663948"
       id="rect1987-7" />
    <rect
       x="186.46281"
       y="117.96535"
       width="76.661301"
       height="23.407143"
       id="rect12200" />
    <rect
       x="186.46281"
       y="117.96535"
       width="70.006973"
       height="30.224663"
       id="rect12308" />
    <rect
       x="186.46281"
       y="117.96535"
       width="49.698067"
       height="27.653742"
       id="rect12314" />
    <rect
       x="186.46281"
       y="117.96535"
       width="61.498146"
       height="27.093851"
       id="rect12314-0" />
    <rect
       x="186.46281"
       y="117.96535"
       width="49.698067"
       height="27.653742"
       id="rect12314-0-1" />
    <rect
       x="186.46281"
       y="117.96535"
       width="49.698067"
       height="27.653742"
       id="rect12314-0-1-5" />
    <rect
       x="186.46281"
       y="117.96535"
       width="76.661301"
       height="23.407143"
       id="rect12200-6" />
    <rect
       x="179.84904"
       y="695.25574"
       width="711.29156"
       height="89.663948"
       id="rect1987-7-3" />
    <rect
       x="179.84904"
       y="695.25574"
       width="711.29156"
       height="89.663948"
       id="rect1987-7-3-4" />
    <rect
       x="179.84904"
       y="695.25574"
       width="711.29156"
       height="89.663948"
       id="rect1987-7-4" />
    <rect
       x="179.84904"
       y="695.25574"
       width="711.29156"
       height="89.663948"
       id="rect1987-7-4-3" />
    <rect
       x="818.16071"
       y="447.66229"
       width="21.018402"
       height="31.769325"
       id="rect24984-8" />
    <rect
       x="818.16071"
       y="447.66229"
       width="21.018402"
       height="31.769325"
       id="rect24984-9" />
    <rect
       x="818.16071"
       y="447.66229"
       width="21.018402"
       height="31.769325"
       id="rect26184" />
    <rect
       x="818.16071"
       y="447.66229"
       width="21.018402"
       height="31.769325"
       id="rect26936" />
    <rect
       x="186.46281"
       y="117.96535"
       width="76.661301"
       height="23.407143"
       id="rect12200-6-2" />
    <rect
       x="186.46281"
       y="117.96535"
       width="76.661301"
       height="23.407143"
       id="rect12200-6-6" />
    <rect
       x="186.46281"
       y="117.96535"
       width="76.661301"
       height="23.407143"
       id="rect34331" />
  </defs>
  <g
     id="layer1"
     transform="translate(-23.574595,-12.038247)">
    <rect
       style="fill:#c5c5c5;fill-opacity:1;stroke:#999999;stroke-width:0.287218;stroke-dasharray:none;stroke-opacity:1"
       id="rect27865"
       width="10.766784"
       height="28.236652"
       x="207.3739"
       y="97.520256" />
    <rect
       style="fill:#92ce9e;fill-opacity:1;stroke:#92ce9e;stroke-width:0.2;stroke-dasharray:none;stroke-opacity:1"
       id="rect234"
       width="15"
       height="64.102615"
       x="-111.04979"
       y="-76.441132"
       transform="scale(-1)" />
    <rect
       style="fill:#c5ce92;fill-opacity:1;stroke:#c5ce92;stroke-width:0.2;stroke-dasharray:none;stroke-opacity:1"
       id="rect236"
       width="15"
       height="14.899604"
       x="-111.0498"
       y="-94.231384"
       transform="scale(-1)" />
    <path
       id="rect236-8"
       style="fill:none;stroke:#c5ce92;stroke-width:0.2;stroke-dasharray:none;stroke-opacity:1"
       d="m -144.9491,-73.812261 33.8993,-20.419123 v 14.899605 l -33.8993,9.88693 z"
       transform="scale(-1)" />
    <rect
       style="fill:#cea992;fill-opacity:1;stroke:#cea992;stroke-width:0.2;stroke-dasharray:none;stroke-opacity:1"
       id="rect238"
       width="15"
       height="7.1329179"
       x="-111.04979"
       y="-105.32999"
       transform="scale(-1)" />
    <path
       id="rect238-9"
       style="fill:none;stroke:#cea992;stroke-width:0.197448;stroke-dasharray:none;stroke-opacity:1"
       d="M 144.94912,78.720637 111.04979,105.32999 V 98.197067 L 144.94912,75.3163 Z" />
    <path
       id="rect238-9-9"
       style="fill:none;stroke:#ce92bb;stroke-width:0.200151;stroke-dasharray:none;stroke-opacity:1"
       d="m 144.94849,82.059295 -33.8987,33.867275 v -5.39145 l 33.8987,-30.270655 z" />
    <rect
       style="fill:#ce92bb;fill-opacity:1;stroke:#ce92bb;stroke-width:0.2;stroke-dasharray:none;stroke-opacity:1"
       id="rect240"
       width="15"
       height="5.391449"
       x="-111.04979"
       y="-115.92657"
       transform="scale(-1)" />
    <rect
       style="fill:#ad92ce;fill-opacity:1;stroke:#ad92ce;stroke-width:0.2;stroke-dasharray:none;stroke-opacity:1"
       id="rect242"
       width="15"
       height="4.1811128"
       x="-111.04979"
       y="-125.89756"
       transform="scale(-1)" />
    <path
       id="rect242-9"
       style="fill:none;stroke:#ad92ce;stroke-width:0.2"
       d="m -144.9491,-85.011426 33.89931,-40.886134 v 4.18111 l -33.89931,37.767564 z"
       transform="scale(-1)" />
    <rect
       style="fill:#92c6ce;fill-opacity:1;stroke:#92c6ce;stroke-width:0.2;stroke-dasharray:none;stroke-opacity:1"
       id="rect242-3"
       width="15"
       height="3.3446026"
       x="-111.04979"
       y="-135.16841"
       transform="scale(-1)" />
    <path
       id="rect242-3-4"
       style="fill:none;stroke:#92c6ce;stroke-width:0.2"
       d="m 144.9491,88.026912 -33.89931,47.141498 v -3.3446 L 144.9491,86.920532 Z" />
    <path
       id="rect234-9-6"
       style="fill:#92ce9e;stroke:#92ce9e;stroke-width:0.2;stroke-dasharray:none;stroke-opacity:1"
       d="m 159.9491,68.378331 h -15 V 55.40506 h 15 z" />
    <path
       id="rect236-2-1"
       style="fill:#c5ce92;stroke:#c5ce92;stroke-width:0.2;stroke-dasharray:none;stroke-opacity:1"
       d="m 159.9491,73.812261 h -15 v -4.367412 h 15 z" />
    <path
       id="rect238-9-7-0"
       style="fill:#cea992;stroke:#cea992;stroke-width:0.2;stroke-dasharray:none;stroke-opacity:1"
       d="m 159.94912,78.720637 h -15 V 75.3163 h 15 z" />
    <path
       id="rect240-3-6"
       style="fill:#ce92bb;stroke:#ce92bb;stroke-width:0.2;stroke-dasharray:none;stroke-opacity:1"
       d="m 159.94849,82.059295 h -15 v -1.79483 h 15 z" />
    <path
       id="rect242-6-3"
       style="fill:#ad92ce;stroke:#ad92ce;stroke-width:0.2;stroke-dasharray:none;stroke-opacity:1"
       d="m 159.9491,85.011426 h -15 v -1.06254 h 15 z" />
    <path
       id="rect242-3-2-2"
       style="fill:#92c6ce;stroke:#92c6ce;stroke-width:0.2;stroke-dasharray:none;stroke-opacity:1"
       d="m 159.9491,88.026912 h -15 v -1.10638 h 15 z" />
    <rect
       style="fill:#db7f76;fill-opacity:1;stroke:none;stroke-width:0.150994;stroke-opacity:1"
       id="rect244"
       width="15"
       height="2.8576989"
       x="174.55835"
       y="114.54748" />
    <path
       id="rect244-5"
       style="fill:#f588a7;fill-opacity:1;stroke:none;stroke-width:0.211089;stroke-opacity:1"
       d="m 174.5584,68.673614 h 15 v 5.585064 h -15 z" />
    <path
       id="rect244-5-5"
       style="fill:#f588a7;fill-opacity:1;stroke-width:0.211089"
       d="m 174.55835,108.34635 h 15 v 5.58507 h -15 z" />
    <text
       xml:space="preserve"
       transform="matrix(0.26458333,0,0,0.26458333,-14.025557,10.427154)"
       id="text1041"
       style="font-style:normal;font-variant:normal;font-weight:normal;font-stretch:normal;font-size:16px;font-family:sans-serif;-inkscape-font-specification:'sans-serif, Normal';font-variant-ligatures:normal;font-variant-caps:normal;font-variant-numeric:normal;font-variant-east-asian:normal;white-space:pre;shape-inside:url(#rect1043);display:inline;fill:#030303;fill-opacity:1;stroke:none;stroke-width:0.710551;stroke-dasharray:none;stroke-opacity:1"><tspan
         x="186.46289"
         y="132.52285"
         id="tspan35192">RNA-Seq gene-level tpm: 996</tspan></text>
    <text
       xml:space="preserve"
       transform="matrix(0.26458333,0,0,0.26458333,-4.3735704,53.29728)"
       id="text1041-6"
       style="font-style:normal;font-variant:normal;font-weight:normal;font-stretch:normal;font-size:16px;font-family:sans-serif;-inkscape-font-specification:'sans-serif, Normal';font-variant-ligatures:normal;font-variant-caps:normal;font-variant-numeric:normal;font-variant-east-asian:normal;white-space:pre;shape-inside:url(#rect1043-5);display:inline;fill:#030303;fill-opacity:1;stroke:none;stroke-width:0.710551;stroke-dasharray:none;stroke-opacity:1"><tspan
         x="186.46289"
         y="132.52285"
         id="tspan35194">WGS Gene-level CN: 166</tspan></text>
    <text
       xml:space="preserve"
       transform="matrix(0.26458333,0,0,0.26458333,-23.908913,0.69487761)"
       id="text1967"
       style="font-style:normal;font-variant:normal;font-weight:normal;font-stretch:normal;font-size:16px;font-family:sans-serif;-inkscape-font-specification:'sans-serif, Normal';font-variant-ligatures:normal;font-variant-caps:normal;font-variant-numeric:normal;font-variant-east-asian:normal;white-space:pre;shape-inside:url(#rect1969);display:inline;fill:#030303;fill-opacity:1;stroke:none;stroke-width:0.710551;stroke-dasharray:none;stroke-opacity:1"><tspan
         x="185.5293"
         y="386.15175"
         id="tspan35196">WGS Gistic Recurrent Amp/Del: 42</tspan></text>
    <text
       xml:space="preserve"
       transform="matrix(0.26458333,0,0,0.26458333,0.8137601,-23.454238)"
       id="text1973"
       style="font-style:normal;font-variant:normal;font-weight:normal;font-stretch:normal;font-size:16px;font-family:sans-serif;-inkscape-font-specification:'sans-serif, Normal';font-variant-ligatures:normal;font-variant-caps:normal;font-variant-numeric:normal;font-variant-east-asian:normal;white-space:pre;shape-inside:url(#rect1975);display:inline;fill:#030303;fill-opacity:1;stroke:none;stroke-width:0.710551;stroke-dasharray:none;stroke-opacity:1"><tspan
         x="185.86523"
         y="520.76503"
         id="tspan35198">WGS iFISH probes: 24</tspan></text>
    <text
       xml:space="preserve"
       transform="matrix(0.26458333,0,0,0.26458333,-25.021562,-38.184025)"
       id="text1979"
       style="font-style:normal;font-variant:normal;font-weight:normal;font-stretch:normal;font-size:16px;font-family:sans-serif;-inkscape-font-specification:'sans-serif, Normal';font-variant-ligatures:normal;font-variant-caps:normal;font-variant-numeric:normal;font-variant-east-asian:normal;white-space:pre;shape-inside:url(#rect1981);display:inline;fill:#030303;fill-opacity:1;stroke:none;stroke-width:0.710551;stroke-dasharray:none;stroke-opacity:1"><tspan
         x="183.47852"
         y="616.40957"
         id="tspan35200">WXS SBS mutational signatures: 10</tspan></text>
    <text
       xml:space="preserve"
       transform="matrix(0.26458333,0,0,0.26458333,-14.951277,-53.208139)"
       id="text1985"
       style="font-style:normal;font-variant:normal;font-weight:normal;font-stretch:normal;font-size:16px;font-family:sans-serif;-inkscape-font-specification:'sans-serif, Normal';font-variant-ligatures:normal;font-variant-caps:normal;font-variant-numeric:normal;font-variant-east-asian:normal;white-space:pre;shape-inside:url(#rect1987);display:inline;fill:#030303;fill-opacity:1;stroke:none;stroke-width:0.710551;stroke-dasharray:none;stroke-opacity:1"><tspan
         x="179.84961"
         y="709.81386"
         id="tspan35202">WGS/RNA-Seq IgH subtypes: 8</tspan></text>
    <text
       xml:space="preserve"
       transform="matrix(0.26458333,0,0,0.26458333,87.95137,-68.763651)"
       id="text1985-5"
       style="font-style:normal;font-variant:normal;font-weight:normal;font-stretch:normal;font-size:16px;font-family:sans-serif;-inkscape-font-specification:'sans-serif, Normal';font-variant-ligatures:normal;font-variant-caps:normal;font-variant-numeric:normal;font-variant-east-asian:normal;white-space:pre;shape-inside:url(#rect1987-7);display:inline;fill:#030303;fill-opacity:1;stroke:none;stroke-width:0.710551;stroke-dasharray:none;stroke-opacity:1"><tspan
         x="179.84961"
         y="709.81386"
         id="tspan35204">age, sex, ISS stage</tspan></text>
    <text
       xml:space="preserve"
       transform="matrix(0.26458333,0,0,0.26458333,93.221882,-75.909724)"
       id="text1985-5-74"
       style="font-style:normal;font-variant:normal;font-weight:normal;font-stretch:normal;font-size:16px;font-family:sans-serif;-inkscape-font-specification:'sans-serif, Normal';font-variant-ligatures:normal;font-variant-caps:normal;font-variant-numeric:normal;font-variant-east-asian:normal;white-space:pre;shape-inside:url(#rect1987-7-4);display:inline;fill:#030303;fill-opacity:1;stroke:none;stroke-width:0.710551;stroke-dasharray:none;stroke-opacity:1"><tspan
         x="179.84961"
         y="709.81386"
         id="tspan35206">VAE embedding</tspan></text>
    <text
       xml:space="preserve"
       transform="matrix(0.26458333,0,0,0.26458333,156.48943,-54.866801)"
       id="text1985-5-74-0"
       style="font-style:normal;font-variant:normal;font-weight:normal;font-stretch:normal;font-size:16px;font-family:sans-serif;-inkscape-font-specification:'sans-serif, Normal';font-variant-ligatures:normal;font-variant-caps:normal;font-variant-numeric:normal;font-variant-east-asian:normal;white-space:pre;shape-inside:url(#rect1987-7-4-3);display:inline;fill:#030303;fill-opacity:1;stroke:none;stroke-width:0.710551;stroke-dasharray:none;stroke-opacity:1"><tspan
         x="179.84961"
         y="709.81386"
         id="tspan35208">risk score</tspan></text>
    <text
       xml:space="preserve"
       transform="matrix(0.26458333,0,0,0.26458333,105.24476,-143.33321)"
       id="text1985-5-7"
       style="font-style:normal;font-variant:normal;font-weight:normal;font-stretch:normal;font-size:16px;font-family:sans-serif;-inkscape-font-specification:'sans-serif, Normal';font-variant-ligatures:normal;font-variant-caps:normal;font-variant-numeric:normal;font-variant-east-asian:normal;white-space:pre;shape-inside:url(#rect1987-7-3);display:inline;fill:#030303;fill-opacity:1;stroke:none;stroke-width:0.710551;stroke-dasharray:none;stroke-opacity:1"><tspan
         x="179.84961"
         y="709.81386"
         id="tspan35210">bottleneck layer</tspan></text>
    <text
       xml:space="preserve"
       transform="matrix(0.26458333,0,0,0.26458333,69.545804,-170.43059)"
       id="text1985-5-7-5"
       style="font-style:normal;font-variant:normal;font-weight:normal;font-stretch:normal;font-size:16px;font-family:sans-serif;-inkscape-font-specification:'sans-serif, Normal';font-variant-ligatures:normal;font-variant-caps:normal;font-variant-numeric:normal;font-variant-east-asian:normal;white-space:pre;shape-inside:url(#rect1987-7-3-4);display:inline;fill:#030303;fill-opacity:1;stroke:none;stroke-width:0.710551;stroke-dasharray:none;stroke-opacity:1"><tspan
         x="179.84961"
         y="709.81386"
         id="tspan35212">peripheral layer</tspan></text>
    <path
       id="rect3790"
       style="fill:none;stroke:#92ce9e;stroke-width:0.208;stroke-dasharray:none;stroke-opacity:1"
       d="M 111.04979,12.338516 144.9491,55.40506 v 12.973271 l -33.89931,8.062801 z" />
    <text
       xml:space="preserve"
       transform="matrix(0.26458333,0,0,0.26458333,66.170528,16.822518)"
       id="text12198"
       style="font-style:normal;font-variant:normal;font-weight:normal;font-stretch:normal;font-size:16px;font-family:sans-serif;-inkscape-font-specification:'sans-serif, Normal';font-variant-ligatures:normal;font-variant-caps:normal;font-variant-numeric:normal;font-variant-east-asian:normal;white-space:pre;shape-inside:url(#rect12200);display:inline;fill:#030303;fill-opacity:1;stroke:none;stroke-width:0.710551;stroke-dasharray:none;stroke-opacity:1"><tspan
         x="186.46289"
         y="132.52285"
         id="tspan35214">996✕64</tspan></text>
    <text
       xml:space="preserve"
       transform="matrix(0.26458333,0,0,0.26458333,111.35866,38.173064)"
       id="text12198-9"
       style="font-style:normal;font-variant:normal;font-weight:normal;font-stretch:normal;font-size:16px;font-family:sans-serif;-inkscape-font-specification:'sans-serif, Normal';font-variant-ligatures:normal;font-variant-caps:normal;font-variant-numeric:normal;font-variant-east-asian:normal;white-space:pre;shape-inside:url(#rect12200-6);display:inline;fill:#030303;fill-opacity:1;stroke:none;stroke-width:0.710551;stroke-dasharray:none;stroke-opacity:1"><tspan
         x="186.46289"
         y="132.52285"
         id="tspan35216">88✕12</tspan></text>
    <text
       xml:space="preserve"
       transform="matrix(0.26458333,0,0,0.26458333,131.72854,37.537343)"
       id="text12198-9-4"
       style="font-style:normal;font-variant:normal;font-weight:normal;font-stretch:normal;font-size:16px;font-family:sans-serif;-inkscape-font-specification:'sans-serif, Normal';font-variant-ligatures:normal;font-variant-caps:normal;font-variant-numeric:normal;font-variant-east-asian:normal;white-space:pre;shape-inside:url(#rect12200-6-6);display:inline;fill:#030303;fill-opacity:1;stroke:none;stroke-width:0.710551;stroke-dasharray:none;stroke-opacity:1"><tspan
         x="186.46289"
         y="132.52285"
         id="tspan35218">z</tspan></text>
    <text
       xml:space="preserve"
       transform="matrix(0.26458333,0,0,0.26458333,142.20959,79.323729)"
       id="text12198-9-6"
       style="font-style:normal;font-variant:normal;font-weight:normal;font-stretch:normal;font-size:16px;font-family:sans-serif;-inkscape-font-specification:'sans-serif, Normal';font-variant-ligatures:normal;font-variant-caps:normal;font-variant-numeric:normal;font-variant-east-asian:normal;white-space:pre;shape-inside:url(#rect12200-6-2);display:inline;fill:#030303;fill-opacity:1;stroke:none;stroke-width:0.710551;stroke-dasharray:none;stroke-opacity:1"><tspan
         x="186.46289"
         y="132.52285"
         id="tspan35220">16✕1</tspan></text>
    <text
       xml:space="preserve"
       transform="matrix(0.26458333,0,0,0.26458333,66.145128,46.953626)"
       id="text12306"
       style="font-style:normal;font-variant:normal;font-weight:normal;font-stretch:normal;font-size:16px;font-family:sans-serif;-inkscape-font-specification:'sans-serif, Normal';font-variant-ligatures:normal;font-variant-caps:normal;font-variant-numeric:normal;font-variant-east-asian:normal;white-space:pre;shape-inside:url(#rect12308);display:inline;fill:#030303;fill-opacity:1;stroke:none;stroke-width:0.710551;stroke-dasharray:none;stroke-opacity:1"><tspan
         x="186.46289"
         y="132.52285"
         id="tspan35222">166✕16</tspan></text>
    <text
       xml:space="preserve"
       transform="matrix(0.26458333,0,0,0.26458333,67.870514,59.345023)"
       id="text12312"
       style="font-style:normal;font-variant:normal;font-weight:normal;font-stretch:normal;font-size:16px;font-family:sans-serif;-inkscape-font-specification:'sans-serif, Normal';font-variant-ligatures:normal;font-variant-caps:normal;font-variant-numeric:normal;font-variant-east-asian:normal;white-space:pre;shape-inside:url(#rect12314);display:inline;fill:#030303;fill-opacity:1;stroke:none;stroke-width:0.710551;stroke-dasharray:none;stroke-opacity:1"><tspan
         x="186.46289"
         y="132.52285"
         id="tspan35224">42✕4</tspan></text>
    <text
       xml:space="preserve"
       transform="matrix(0.26458333,0,0,0.26458333,67.881097,67.75801)"
       id="text12312-6"
       style="font-style:normal;font-variant:normal;font-weight:normal;font-stretch:normal;font-size:16px;font-family:sans-serif;-inkscape-font-specification:'sans-serif, Normal';font-variant-ligatures:normal;font-variant-caps:normal;font-variant-numeric:normal;font-variant-east-asian:normal;white-space:pre;shape-inside:url(#rect12314-0);display:inline;fill:#030303;fill-opacity:1;stroke:none;stroke-width:0.710551;stroke-dasharray:none;stroke-opacity:1"><tspan
         x="186.46289"
         y="132.52285"
         id="tspan35226">24✕2</tspan></text>
    <text
       xml:space="preserve"
       transform="matrix(0.26458333,0,0,0.26458333,68.143564,75.944761)"
       id="text12312-6-5"
       style="font-style:normal;font-variant:normal;font-weight:normal;font-stretch:normal;font-size:16px;font-family:sans-serif;-inkscape-font-specification:'sans-serif, Normal';font-variant-ligatures:normal;font-variant-caps:normal;font-variant-numeric:normal;font-variant-east-asian:normal;white-space:pre;shape-inside:url(#rect12314-0-1);display:inline;fill:#030303;fill-opacity:1;stroke:none;stroke-width:0.710551;stroke-dasharray:none;stroke-opacity:1"><tspan
         x="186.46289"
         y="132.52285"
         id="tspan35228">10✕1</tspan></text>
    <text
       xml:space="preserve"
       transform="matrix(0.26458333,0,0,0.26458333,70.217814,82.911128)"
       id="text12312-6-5-4"
       style="font-style:normal;font-variant:normal;font-weight:normal;font-stretch:normal;font-size:16px;font-family:sans-serif;-inkscape-font-specification:'sans-serif, Normal';font-variant-ligatures:normal;font-variant-caps:normal;font-variant-numeric:normal;font-variant-east-asian:normal;white-space:pre;shape-inside:url(#rect12314-0-1-5);display:inline;fill:#030303;fill-opacity:1;stroke:none;stroke-width:0.710551;stroke-dasharray:none;stroke-opacity:1"><tspan
         x="186.46289"
         y="132.52285"
         id="tspan35230">8✕1</tspan></text>
    <path
       style="fill:none;stroke:#afafaf;stroke-width:0.221625;stroke-opacity:1"
       d="m 159.95659,55.415404 14.59432,13.420619 m 0,5.364355 -14.59432,13.835566"
       id="rect12575" />
    <use
       x="0"
       y="0"
       xlink:href="#rect234"
       id="use14283"
       transform="matrix(-1,0,0,1,364.1167,0)" />
    <use
       x="0"
       y="0"
       xlink:href="#rect236"
       id="use14285"
       transform="matrix(-1,0,0,1,364.1167,0)" />
    <use
       x="0"
       y="0"
       xlink:href="#rect236-8"
       id="use14287"
       transform="matrix(-1,0,0,1,364.1167,0)" />
    <use
       x="0"
       y="0"
       xlink:href="#rect238"
       id="use14289"
       transform="matrix(-1,0,0,1,364.1167,0)" />
    <use
       x="0"
       y="0"
       xlink:href="#rect238-9"
       id="use14291"
       transform="matrix(-1,0,0,1,364.1167,0)" />
    <use
       x="0"
       y="0"
       xlink:href="#rect238-9-9"
       id="use14293"
       transform="matrix(-1,0,0,1,364.1167,0)" />
    <use
       x="0"
       y="0"
       xlink:href="#rect240"
       id="use14295"
       transform="matrix(-1,0,0,1,364.1167,0)" />
    <use
       x="0"
       y="0"
       xlink:href="#rect242"
       id="use14297"
       transform="matrix(-1,0,0,1,364.1167,0)" />
    <use
       x="0"
       y="0"
       xlink:href="#rect242-9"
       id="use14299"
       transform="matrix(-1,0,0,1,364.1167,0)" />
    <use
       x="0"
       y="0"
       xlink:href="#rect242-3"
       id="use14301"
       transform="matrix(-1,0,0,1,364.1167,0)" />
    <use
       x="0"
       y="0"
       xlink:href="#rect242-3-4"
       id="use14303"
       transform="matrix(-1,0,0,1,364.1167,0)" />
    <use
       x="0"
       y="0"
       xlink:href="#rect234-9-6"
       id="use14305"
       transform="matrix(-1,0,0,1,364.1167,0)" />
    <use
       x="0"
       y="0"
       xlink:href="#rect236-2-1"
       id="use14307"
       transform="matrix(-1,0,0,1,364.1167,0)" />
    <use
       x="0"
       y="0"
       xlink:href="#rect238-9-7-0"
       id="use14309"
       transform="matrix(-1,0,0,1,364.1167,0)" />
    <use
       x="0"
       y="0"
       xlink:href="#rect240-3-6"
       id="use14311"
       transform="matrix(-1,0,0,1,364.1167,0)" />
    <use
       x="0"
       y="0"
       xlink:href="#rect242-6-3"
       id="use14313"
       transform="matrix(-1,0,0,1,364.1167,0)" />
    <use
       x="0"
       y="0"
       xlink:href="#rect242-3-2-2"
       id="use14315"
       transform="matrix(-1,0,0,1,364.1167,0)" />
    <use
       x="0"
       y="0"
       xlink:href="#rect3790"
       id="use14317"
       transform="matrix(-1,0,0,1,364.1167,0)" />
    <use
       x="0"
       y="0"
       xlink:href="#rect12575"
       id="use14333"
       transform="matrix(-1,0,0,1,364.1167,0)" />
    <path
       style="fill:#999999;fill-opacity:1;stroke:#afafaf;stroke-width:0.150656;stroke-dasharray:none;stroke-opacity:1"
       d="m 131.07525,18.702624 c 0,15.987066 0,15.987066 0,15.987066"
       id="path14473" />
    <path
       style="fill:#999999;fill-opacity:1;stroke:#afafaf;stroke-width:0.145964;stroke-dasharray:none;stroke-opacity:1"
       d="m 168.90816,46.719566 v 15.00661"
       id="path14473-2" />
    <path
       style="fill:#999999;fill-opacity:1;stroke:#afafaf;stroke-width:0.212405;stroke-dasharray:none;stroke-opacity:1;marker-end:url(#TriangleStart)"
       d="M 181.63378,76.179288 V 105.70686"
       id="path15257" />
    <path
       id="rect16996"
       style="fill:none;stroke:#999999;stroke-width:0.2"
       d="m 190.0875,108.34635 15.41871,3.80804 v 1.44275 l -15.41871,3.80804 z" />
    <g
       id="g28186"
       transform="translate(-0.33609178,-20.584919)">
      <path
         id="rect16999"
         style="fill:#e5e5e5;fill-opacity:1;stroke:#999999;stroke-width:0.3;stroke-dasharray:none;stroke-opacity:1"
         d="m 213.09338,119.41021 c -0.86531,0 -1.56166,0.77523 -1.56166,1.73788 v 18.8836 a 2.5053556,2.5053556 0 0 0 -0.94361,1.95854 2.5053556,2.5053556 0 0 0 2.50527,2.50579 2.5053556,2.5053556 0 0 0 2.50528,-2.50579 2.5053556,2.5053556 0 0 0 -0.9431,-1.95854 v -18.8836 c 0,-0.96265 -0.69687,-1.73788 -1.56218,-1.73788 z" />
      <path
         style="fill:#ffffff;fill-opacity:1;stroke:#999999;stroke-width:0.3;stroke-dasharray:none;stroke-opacity:1"
         d="m 213.12144,120.06644 c -0.53212,0 -0.98821,0.38636 -0.98821,1.19999 v 18.69291 c 0,0.13486 0.0126,0.26473 0.0346,0.38861 -0.5929,0.33411 -0.95983,0.96172 -0.96015,1.64228 -6e-5,1.04153 0.84414,1.88596 1.88567,1.88619 1.04174,6e-5 1.88625,-0.84445 1.88619,-1.88619 -1.3e-4,-0.68075 -0.36708,-1.3086 -0.96015,-1.6428 0.022,-0.12372 0.0346,-0.25342 0.0346,-0.38809 v -18.69291 c 0,-0.81363 -0.40049,-1.19999 -0.93261,-1.19999 z"
         id="rect17090" />
      <circle
         style="fill:#ff0000;fill-opacity:1;stroke:#ff0000;stroke-width:0.3;stroke-dasharray:none;stroke-opacity:1"
         id="path17103"
         cx="213.09361"
         cy="141.99309"
         r="1.2669854" />
      <rect
         style="fill:#ff0000;fill-opacity:1;stroke:#ff0000;stroke-width:0.18041;stroke-dasharray:none;stroke-opacity:1"
         id="rect18041"
         width="0.72948593"
         height="6.4542408"
         x="212.72865"
         y="135.61687"
         rx="1.8681985"
         ry="0.52538657" />
      <text
         xml:space="preserve"
         transform="matrix(0.11305366,0,0,0.11305366,120.33954,70.265227)"
         id="text24982"
         style="font-style:normal;font-variant:normal;font-weight:normal;font-stretch:normal;font-size:16px;font-family:sans-serif;-inkscape-font-specification:'sans-serif, Normal';font-variant-ligatures:normal;font-variant-caps:normal;font-variant-numeric:normal;font-variant-east-asian:normal;white-space:pre;shape-inside:url(#rect24984);display:inline;fill:#000000;fill-opacity:1;stroke:#000000;stroke-width:1.13386;stroke-dasharray:none;stroke-opacity:1"><tspan
           x="818.16016"
           y="462.22011"
           id="tspan35232">1</tspan></text>
      <text
         xml:space="preserve"
         transform="matrix(0.11305366,0,0,0.11305366,119.96782,78.481024)"
         id="text24982-2"
         style="font-style:normal;font-variant:normal;font-weight:normal;font-stretch:normal;font-size:16px;font-family:sans-serif;-inkscape-font-specification:'sans-serif, Normal';font-variant-ligatures:normal;font-variant-caps:normal;font-variant-numeric:normal;font-variant-east-asian:normal;white-space:pre;shape-inside:url(#rect24984-9);display:inline;fill:#000000;fill-opacity:1;stroke:#000000;stroke-width:1.13386;stroke-dasharray:none;stroke-opacity:1"><tspan
           x="818.16016"
           y="462.22011"
           id="tspan35234">½</tspan></text>
      <text
         xml:space="preserve"
         transform="matrix(0.11305366,0,0,0.11305366,120.12881,86.506128)"
         id="text24982-4"
         style="font-style:normal;font-variant:normal;font-weight:normal;font-stretch:normal;font-size:16px;font-family:sans-serif;-inkscape-font-specification:'sans-serif, Normal';font-variant-ligatures:normal;font-variant-caps:normal;font-variant-numeric:normal;font-variant-east-asian:normal;white-space:pre;shape-inside:url(#rect24984-8);display:inline;fill:#000000;fill-opacity:1;stroke:#000000;stroke-width:1.13386;stroke-dasharray:none;stroke-opacity:1"><tspan
           x="818.16016"
           y="462.22011"
           id="tspan35236">0</tspan></text>
      <path
         style="color:#000000;fill:#000000;stroke-width:0.828072;-inkscape-stroke:none"
         d="m 211.39139,130.04367 -0.007,0.37401 c 0.18696,0.20464 0.20249,0.21798 0.40978,0.28224 0.20728,0.0643 0.42543,0.0637 0.63882,0.0586 l -0.004,-0.30079 c -0.21116,0.005 -0.41462,0.004 -0.59195,-0.0508 -0.17733,-0.055 -0.32606,-0.15844 -0.44598,-0.36328 z"
         id="path25222" />
      <path
         style="color:#000000;fill:#000000;stroke-width:0.828072;-inkscape-stroke:none"
         d="m 211.39139,137.69813 -0.007,0.37401 c 0.18696,0.20464 0.20249,0.21798 0.40978,0.28224 0.20728,0.0643 0.42543,0.0637 0.63882,0.0586 l -0.004,-0.30079 c -0.21116,0.005 -0.41462,0.004 -0.59195,-0.0508 -0.17733,-0.055 -0.32606,-0.15844 -0.44598,-0.36328 z"
         id="path25251" />
      <path
         style="color:#000000;fill:#000000;stroke-width:0.828072;-inkscape-stroke:none"
         d="m 211.39139,121.58202 -0.007,0.37401 c 0.18696,0.20464 0.20249,0.21798 0.40978,0.28224 0.20728,0.0643 0.42543,0.0637 0.63882,0.0586 l -0.004,-0.30079 c -0.21116,0.005 -0.41462,0.004 -0.59195,-0.0508 -0.17733,-0.055 -0.32606,-0.15844 -0.44598,-0.36328 z"
         id="path25267" />
      <text
         xml:space="preserve"
         transform="matrix(0.11305366,0,0,0.11305366,119.96782,74.230098)"
         id="text26180"
         style="font-style:normal;font-variant:normal;font-weight:normal;font-stretch:normal;font-size:16px;font-family:sans-serif;-inkscape-font-specification:'sans-serif, Normal';font-variant-ligatures:normal;font-variant-caps:normal;font-variant-numeric:normal;font-variant-east-asian:normal;white-space:pre;shape-inside:url(#rect26184);display:inline;fill:#000000;fill-opacity:1;stroke:#000000;stroke-width:1.13386;stroke-dasharray:none;stroke-opacity:1"><tspan
           x="818.16016"
           y="462.22011"
           id="tspan35238">¾</tspan></text>
      <path
         style="color:#000000;fill:#000000;stroke-width:0.828072;-inkscape-stroke:none"
         d="m 211.39139,125.79274 -0.007,0.37401 c 0.18696,0.20464 0.20249,0.21798 0.40978,0.28224 0.20728,0.0643 0.42543,0.0637 0.63882,0.0586 l -0.004,-0.30079 c -0.21116,0.005 -0.41462,0.004 -0.59195,-0.0508 -0.17733,-0.055 -0.32606,-0.15844 -0.44598,-0.36328 z"
         id="path26182" />
      <text
         xml:space="preserve"
         transform="matrix(0.11305366,0,0,0.11305366,119.96782,82.619438)"
         id="text26932"
         style="font-style:normal;font-variant:normal;font-weight:normal;font-stretch:normal;font-size:16px;font-family:sans-serif;-inkscape-font-specification:'sans-serif, Normal';font-variant-ligatures:normal;font-variant-caps:normal;font-variant-numeric:normal;font-variant-east-asian:normal;white-space:pre;shape-inside:url(#rect26936);display:inline;fill:#000000;fill-opacity:1;stroke:#000000;stroke-width:1.13386;stroke-dasharray:none;stroke-opacity:1"><tspan
           x="818.16016"
           y="462.22011"
           id="tspan35240">¼</tspan></text>
      <path
         style="color:#000000;fill:#000000;stroke-width:0.828072;-inkscape-stroke:none"
         d="m 211.39139,134.18208 -0.007,0.37401 c 0.18696,0.20464 0.20249,0.21798 0.40978,0.28224 0.20728,0.0643 0.42543,0.0637 0.63882,0.0586 l -0.004,-0.30079 c -0.21116,0.005 -0.41462,0.004 -0.59195,-0.0508 -0.17733,-0.055 -0.32606,-0.15844 -0.44598,-0.36328 z"
         id="path26934" />
    </g>
    <circle
       style="fill:#000000;fill-opacity:1;stroke:#606060;stroke-width:0.106702;stroke-dasharray:none;stroke-opacity:1"
       id="path29269"
       cx="208.23291"
       cy="98.596085"
       r="0.31796032" />
    <circle
       style="fill:#000000;fill-opacity:1;stroke:#606060;stroke-width:0.106702;stroke-dasharray:none;stroke-opacity:1"
       id="circle33569"
       cx="217.24008"
       cy="98.596085"
       r="0.31796032" />
    <circle
       style="fill:#000000;fill-opacity:1;stroke:#606060;stroke-width:0.106702;stroke-dasharray:none;stroke-opacity:1"
       id="circle33571"
       cx="208.23291"
       cy="124.92858"
       r="0.31796032" />
    <circle
       style="fill:#000000;fill-opacity:1;stroke:#606060;stroke-width:0.106702;stroke-dasharray:none;stroke-opacity:1"
       id="circle33573"
       cx="217.24008"
       cy="124.92858"
       r="0.31796032" />
    <text
       xml:space="preserve"
       transform="matrix(0.26458333,0,0,0.26458333,131.72854,77.439393)"
       id="text34329"
       style="font-style:normal;font-variant:normal;font-weight:normal;font-stretch:normal;font-size:16px;font-family:sans-serif;-inkscape-font-specification:'sans-serif, Normal';font-variant-ligatures:normal;font-variant-caps:normal;font-variant-numeric:normal;font-variant-east-asian:normal;white-space:pre;shape-inside:url(#rect34331);display:inline;fill:#030303;fill-opacity:1;stroke:none;stroke-width:0.710551;stroke-dasharray:none;stroke-opacity:1"><tspan
         x="186.46289"
         y="132.52285"
         id="tspan35242">z</tspan></text>
  </g>
</svg>
