<svg width="1088" height="466" xmlns="http://www.w3.org/2000/svg" xmlns:xlink="http://www.w3.org/1999/xlink" xml:space="preserve" overflow="hidden"><g transform="translate(-732 -505)"><path d="M805.536 614.078C807.818 614.078 810.057 614.399 812.255 615.041 814.453 615.682 816.467 616.467 818.297 617.393L818.297 624.843 817.941 624.843C815.897 623.251 813.788 622.027 811.614 621.172 809.439 620.316 807.318 619.888 805.251 619.888 801.449 619.888 798.449 621.166 796.251 623.72 794.053 626.275 792.954 630.023 792.954 634.966 792.954 639.766 794.029 643.455 796.18 646.034 798.33 648.612 801.354 649.901 805.251 649.901 806.606 649.901 807.984 649.723 809.386 649.366 810.788 649.01 812.047 648.547 813.164 647.976 814.138 647.477 815.053 646.949 815.909 646.39 816.764 645.832 817.442 645.351 817.941 644.947L818.297 644.947 818.297 652.325C816.063 653.394 813.942 654.226 811.934 654.82 809.926 655.414 807.794 655.711 805.536 655.711 802.661 655.711 800.023 655.289 797.623 654.446 795.223 653.602 793.168 652.325 791.457 650.614 789.722 648.903 788.379 646.741 787.429 644.127 786.478 641.513 786.003 638.459 786.003 634.966 786.003 628.455 787.791 623.346 791.368 619.639 794.944 615.932 799.667 614.078 805.536 614.078Z" fill-rule="evenodd"/><text fill="#000000" fill-opacity="0" font-family="Arial,Arial_MSFontService,sans-serif" font-size="41.6328" x="786.003" y="650.507">c</text><path d="M826.099 628.372 848.342 628.372 848.342 634.823 826.099 634.823Z" fill-rule="evenodd"/><text fill="#000000" fill-opacity="0" font-family="Arial,Arial_MSFontService,sans-serif" font-size="6.45166" x="826.099" y="634.017">-</text><path d="M942.545 620.031C938.79 620.031 935.867 621.338 933.776 623.952 931.685 626.566 930.64 630.273 930.64 635.073 930.64 639.802 931.448 643.396 933.063 645.855 934.679 648.315 937.269 649.545 940.834 649.545 942.735 649.545 944.66 649.123 946.608 648.279 948.557 647.436 950.375 646.349 952.062 645.018L952.062 622.17C950.256 621.362 948.64 620.803 947.214 620.494 945.789 620.185 944.232 620.031 942.545 620.031ZM988.652 619.425C985.064 619.425 982.206 620.482 980.079 622.597 977.953 624.712 976.747 627.338 976.461 630.475L999.274 630.475C999.25 626.958 998.365 624.237 996.618 622.312 994.872 620.387 992.216 619.425 988.652 619.425ZM1012.16 615.005 1020.6 615.005 1031.83 630.047 1043.1 615.005 1050.94 615.005 1035.29 634.61 1050.94 654.82 1042.49 654.82 1031.19 639.529 1019.82 654.82 1012.01 654.82 1027.55 634.966ZM860.54 615.005 867.242 615.005 867.242 654.82 860.54 654.82ZM989.008 613.9C994.379 613.9 998.519 615.469 1001.43 618.605 1004.34 621.742 1005.8 626.198 1005.8 631.972L1005.8 635.608 976.461 635.608C976.461 638.055 976.83 640.188 977.566 642.006 978.303 643.824 979.313 645.315 980.596 646.479 981.832 647.62 983.299 648.475 984.998 649.046 986.697 649.616 988.569 649.901 990.612 649.901 993.321 649.901 996.048 649.361 998.793 648.279 1001.54 647.198 1003.49 646.135 1004.66 645.089L1005.01 645.089 1005.01 652.396C1002.76 653.347 1000.45 654.143 998.098 654.784 995.745 655.426 993.274 655.747 990.684 655.747 984.077 655.747 978.921 653.959 975.214 650.382 971.507 646.806 969.653 641.727 969.653 635.144 969.653 628.633 971.43 623.465 974.982 619.639 978.535 615.813 983.21 613.9 989.008 613.9ZM900.537 613.9C904.838 613.9 908.117 615.195 910.375 617.785 912.632 620.376 913.761 624.106 913.761 628.978L913.761 654.82 907.06 654.82 907.06 632.15C907.06 630.32 906.953 628.604 906.739 627 906.525 625.396 906.133 624.142 905.563 623.239 904.969 622.241 904.113 621.498 902.997 621.011 901.88 620.524 900.43 620.281 898.648 620.281 896.818 620.281 894.905 620.732 892.909 621.635 890.913 622.538 889 623.69 887.17 625.093L887.17 654.82 880.469 654.82 880.469 615.005 887.17 615.005 887.17 619.425C889.261 617.69 891.424 616.336 893.658 615.362 895.891 614.387 898.185 613.9 900.537 613.9ZM860.113 601.389 867.669 601.389 867.669 608.34 860.113 608.34ZM952.062 599.357 958.763 599.357 958.763 654.82 952.062 654.82 952.062 650.65C950.137 652.313 948.129 653.608 946.038 654.535 943.947 655.462 941.677 655.925 939.23 655.925 934.477 655.925 930.705 654.095 927.913 650.436 925.121 646.776 923.725 641.703 923.725 635.216 923.725 631.841 924.206 628.835 925.168 626.198 926.131 623.56 927.432 621.314 929.071 619.461 930.687 617.655 932.57 616.276 934.721 615.326 936.871 614.375 939.099 613.9 941.404 613.9 943.495 613.9 945.349 614.12 946.965 614.56 948.581 614.999 950.28 615.682 952.062 616.609Z" fill-rule="evenodd"/><text fill="#000000" fill-opacity="0" font-family="Arial,Arial_MSFontService,sans-serif" font-size="56.5679" x="860.113" y="648.854">index</text><path d="M1078.93 638.994 1122.85 638.994 1122.85 643.735 1078.93 643.735ZM1078.93 624.201 1122.85 624.201 1122.85 628.942 1078.93 628.942Z" fill-rule="evenodd"/><text fill="#000000" fill-opacity="0" font-family="Arial,Arial_MSFontService,sans-serif" font-size="19.5332" x="1078.93" y="641.293">=</text><path d="M1167.32 532.382 1211.34 532.382 1211.34 548.243 1207.49 548.243C1206.9 545.986 1206.33 544.144 1205.8 542.718 1205.26 541.293 1204.72 540.164 1204.16 539.332 1203.6 538.5 1203.03 537.865 1202.45 537.425 1201.86 536.986 1201.19 536.653 1200.43 536.427 1199.67 536.201 1198.66 536.089 1197.4 536.089L1177.55 536.089 1194.91 562.43 1194.91 565.139 1175.45 591.872 1198.9 591.872C1200.37 591.872 1201.48 591.777 1202.23 591.587 1202.98 591.397 1203.62 591.106 1204.16 590.714 1204.69 590.322 1205.18 589.775 1205.62 589.074 1206.06 588.373 1206.48 587.405 1206.88 586.169 1207.29 584.933 1207.67 583.318 1208.02 581.321L1212.2 581.321 1211.16 598.716 1165.96 598.716 1165.96 596.72 1187.99 566.458 1167.32 534.413Z" fill-rule="evenodd"/><text fill="#000000" fill-opacity="0" font-family="Arial,Arial_MSFontService,sans-serif" font-size="66.3345" x="1165.96" y="590.424">Ïƒ</text><path d="M1338.97 537.189 1340.93 537.189C1340.79 539.47 1340.72 542.63 1340.72 546.67L1340.72 577.111C1340.72 578.489 1340.79 579.529 1340.95 580.229 1341.1 580.93 1341.38 581.501 1341.77 581.94 1342.16 582.38 1342.72 582.725 1343.46 582.974 1344.2 583.224 1345.12 583.414 1346.24 583.544 1347.36 583.675 1348.83 583.764 1350.66 583.812L1350.66 586.414 1324.32 586.414 1324.32 583.812C1326.96 583.693 1328.84 583.533 1329.97 583.331 1331.1 583.129 1331.96 582.826 1332.55 582.422 1333.15 582.018 1333.58 581.447 1333.86 580.711 1334.13 579.974 1334.27 578.774 1334.27 577.111L1334.27 548.203C1334.27 547.252 1334.1 546.557 1333.77 546.118 1333.43 545.678 1332.95 545.458 1332.3 545.458 1331.54 545.458 1330.46 545.85 1329.06 546.635 1327.66 547.419 1325.92 548.5 1323.86 549.878L1322.29 547.134Z" fill-rule="evenodd"/><text fill="#000000" fill-opacity="0" font-family="Arial,Arial_MSFontService,sans-serif" font-size="49.2251" x="1322.29" y="580.261">1</text><path d="M1378.18 578.424C1377.13 578.424 1376.16 578.739 1375.27 579.368 1374.38 579.998 1373.42 580.9 1372.41 582.073 1371.94 582.625 1371.51 583.168 1371.11 583.703 1370.72 584.238 1370.36 584.82 1370.04 585.45 1369.72 586.08 1369.44 586.778 1369.18 587.546 1368.93 588.314 1368.71 589.198 1368.53 590.199 1368.28 591.389 1368.09 592.39 1367.96 593.201 1367.82 594.012 1367.75 594.779 1367.75 595.504 1367.75 596.901 1368.07 597.889 1368.72 598.467 1369.37 599.045 1370.41 599.334 1371.84 599.334 1372.84 599.334 1373.77 599.114 1374.65 598.674 1375.52 598.234 1376.31 597.635 1377.01 596.875 1377.72 596.116 1378.35 595.232 1378.9 594.223 1379.45 593.214 1379.92 592.135 1380.29 590.988 1380.66 589.841 1380.94 588.663 1381.14 587.456 1381.34 586.248 1381.44 585.075 1381.44 583.936 1381.44 582.09 1381.18 580.71 1380.68 579.795 1380.17 578.881 1379.33 578.424 1378.18 578.424ZM1366.17 574.956C1367.43 574.956 1368.41 575.374 1369.11 576.211 1369.81 577.048 1370.16 578.148 1370.16 579.511 1370.16 579.908 1370.13 580.287 1370.06 580.649 1370 581.012 1369.9 581.374 1369.74 581.736L1370.1 581.917C1371.79 579.554 1373.45 577.803 1375.09 576.664 1376.72 575.525 1378.43 574.956 1380.22 574.956 1382.28 574.956 1383.85 575.698 1384.95 577.182 1386.04 578.665 1386.59 580.831 1386.59 583.677 1386.59 586.162 1386.2 588.504 1385.44 590.703 1384.67 592.903 1383.63 594.831 1382.32 596.487 1381.01 598.144 1379.48 599.45 1377.75 600.408 1376.02 601.365 1374.18 601.844 1372.25 601.844 1370.91 601.844 1369.74 601.711 1368.74 601.443 1367.75 601.176 1366.93 600.852 1366.27 600.473 1366.12 601.146 1365.95 601.844 1365.77 602.569 1365.59 603.293 1365.42 603.992 1365.25 604.665 1365.09 605.338 1364.95 605.959 1364.85 606.528 1364.75 607.098 1364.69 607.555 1364.69 607.9 1364.69 608.21 1364.74 608.469 1364.84 608.676 1364.93 608.883 1365.1 609.056 1365.35 609.194 1365.6 609.332 1365.94 609.44 1366.35 609.517 1366.77 609.595 1367.28 609.66 1367.9 609.711L1367.83 611.419 1358.72 611.419 1365.03 584.454C1365.24 583.505 1365.39 582.711 1365.47 582.073 1365.56 581.434 1365.6 580.865 1365.6 580.365 1365.6 579.105 1365.09 578.476 1364.07 578.476 1363.76 578.476 1363.45 578.54 1363.14 578.67 1362.83 578.799 1362.5 578.993 1362.15 579.252 1361.79 579.511 1361.4 579.839 1360.98 580.235 1360.56 580.632 1360.09 581.098 1359.57 581.633L1357.79 579.951C1358.65 579.088 1359.44 578.342 1360.15 577.712 1360.87 577.082 1361.56 576.565 1362.22 576.159 1362.89 575.754 1363.53 575.452 1364.16 575.254 1364.79 575.055 1365.46 574.956 1366.17 574.956Z" fill-rule="evenodd"/><text fill="#000000" fill-opacity="0" font-family="Arial,Arial_MSFontService,sans-serif" font-size="36.4634" x="1357.79" y="606.862">ğ‘</text><path d="M1400.89 590.474 1402.69 590.474 1399.49 605.127C1399.27 606.115 1399.12 606.845 1399.04 607.318 1398.95 607.791 1398.91 608.235 1398.91 608.65 1398.91 609.667 1399.38 610.176 1400.33 610.176 1400.91 610.176 1401.51 609.946 1402.11 609.488 1402.71 609.03 1403.44 608.349 1404.28 607.447L1405.89 609.015C1404.39 610.519 1403.08 611.615 1401.96 612.302 1400.84 612.99 1399.68 613.334 1398.46 613.334 1397.28 613.334 1396.33 612.929 1395.59 612.12 1394.85 611.311 1394.48 610.297 1394.48 609.08 1394.48 607.92 1394.71 606.308 1395.15 604.246L1396.8 596.92C1396.99 596.089 1397.11 595.459 1397.17 595.029 1397.23 594.599 1397.25 594.22 1397.25 593.89 1397.25 593.375 1397.03 593.01 1396.59 592.795 1396.14 592.58 1395.45 592.451 1394.5 592.408L1394.83 590.754ZM1400 581.558 1404.69 581.558 1403.61 586.457 1398.91 586.457Z" fill-rule="evenodd"/><text fill="#000000" fill-opacity="0" font-family="Arial,Arial_MSFontService,sans-serif" font-size="31.7754" x="1394.48" y="609.362">ğ‘–</text><path d="M1444.9 570.065 1444.9 574.568 1417.62 586.265 1444.9 597.678 1444.9 602.181 1412.68 588.361 1412.68 584.169Z" fill-rule="evenodd"/><text fill="#000000" fill-opacity="0" font-family="Arial,Arial_MSFontService,sans-serif" font-size="32.1157" x="1412.68" y="598.166">&lt;</text><path d="M1470.35 578.424C1469.3 578.424 1468.33 578.739 1467.44 579.368 1466.55 579.998 1465.6 580.9 1464.58 582.073 1464.11 582.625 1463.68 583.168 1463.28 583.703 1462.89 584.238 1462.53 584.82 1462.21 585.45 1461.89 586.08 1461.61 586.778 1461.36 587.546 1461.11 588.314 1460.89 589.198 1460.7 590.199 1460.45 591.389 1460.26 592.39 1460.13 593.201 1459.99 594.012 1459.92 594.779 1459.92 595.504 1459.92 596.901 1460.24 597.889 1460.89 598.467 1461.54 599.045 1462.58 599.334 1464.01 599.334 1465.01 599.334 1465.95 599.114 1466.82 598.674 1467.69 598.234 1468.48 597.635 1469.18 596.875 1469.89 596.116 1470.52 595.232 1471.07 594.223 1471.63 593.214 1472.09 592.135 1472.46 590.988 1472.83 589.841 1473.11 588.663 1473.31 587.456 1473.51 586.248 1473.61 585.075 1473.61 583.936 1473.61 582.09 1473.35 580.71 1472.85 579.795 1472.34 578.881 1471.5 578.424 1470.35 578.424ZM1458.34 574.956C1459.6 574.956 1460.58 575.374 1461.28 576.211 1461.98 577.048 1462.33 578.148 1462.33 579.511 1462.33 579.908 1462.3 580.287 1462.24 580.649 1462.18 581.012 1462.07 581.374 1461.91 581.736L1462.27 581.917C1463.97 579.554 1465.63 577.803 1467.26 576.664 1468.89 575.525 1470.6 574.956 1472.39 574.956 1474.45 574.956 1476.02 575.698 1477.12 577.182 1478.21 578.665 1478.76 580.831 1478.76 583.677 1478.76 586.162 1478.38 588.504 1477.61 590.703 1476.84 592.903 1475.8 594.831 1474.49 596.487 1473.18 598.144 1471.66 599.45 1469.92 600.408 1468.19 601.365 1466.35 601.844 1464.42 601.844 1463.08 601.844 1461.91 601.711 1460.92 601.443 1459.92 601.176 1459.1 600.852 1458.44 600.473 1458.29 601.146 1458.12 601.844 1457.94 602.569 1457.76 603.293 1457.59 603.992 1457.42 604.665 1457.26 605.338 1457.12 605.959 1457.02 606.528 1456.92 607.098 1456.87 607.555 1456.87 607.9 1456.87 608.21 1456.91 608.469 1457.01 608.676 1457.1 608.883 1457.28 609.056 1457.53 609.194 1457.78 609.332 1458.11 609.44 1458.52 609.517 1458.94 609.595 1459.45 609.66 1460.07 609.711L1460 611.419 1450.89 611.419 1457.2 584.454C1457.41 583.505 1457.56 582.711 1457.64 582.073 1457.73 581.434 1457.77 580.865 1457.77 580.365 1457.77 579.105 1457.26 578.476 1456.24 578.476 1455.93 578.476 1455.62 578.54 1455.31 578.67 1455 578.799 1454.67 578.993 1454.32 579.252 1453.96 579.511 1453.57 579.839 1453.15 580.235 1452.73 580.632 1452.26 581.098 1451.74 581.633L1449.96 579.951C1450.82 579.088 1451.61 578.342 1452.32 577.712 1453.04 577.082 1453.73 576.565 1454.39 576.159 1455.06 575.754 1455.71 575.452 1456.34 575.254 1456.97 575.055 1457.63 574.956 1458.34 574.956Z" fill-rule="evenodd"/><text fill="#000000" fill-opacity="0" font-family="Arial,Arial_MSFontService,sans-serif" font-size="36.4634" x="1449.96" y="606.862">ğ‘</text><path d="M1498.84 590.474 1500.49 590.474 1495.7 612.947C1495 616.241 1493.8 618.605 1492.12 620.037 1490.44 621.469 1488.17 622.185 1485.3 622.185 1484.46 622.185 1483.73 622.107 1483.13 621.949L1483.71 619.5C1484.14 619.629 1484.72 619.693 1485.45 619.693 1486.48 619.693 1487.32 619.503 1487.96 619.124 1488.61 618.744 1489.19 618.085 1489.7 617.147 1490.22 616.209 1490.67 614.866 1491.06 613.119L1494.6 596.92C1494.92 595.53 1495.08 594.506 1495.08 593.847 1495.08 593.36 1494.86 593.01 1494.44 592.795 1494.02 592.58 1493.31 592.451 1492.33 592.408L1492.65 590.754ZM1497.83 581.558 1502.51 581.558 1501.41 586.457 1496.73 586.457Z" fill-rule="evenodd"/><text fill="#000000" fill-opacity="0" font-family="Arial,Arial_MSFontService,sans-serif" font-size="40.627" x="1483.13" y="617.107">ğ‘—</text><path d="M1532.66 537.189 1534.62 537.189C1534.48 539.47 1534.41 542.63 1534.41 546.67L1534.41 577.111C1534.41 578.489 1534.49 579.529 1534.64 580.229 1534.79 580.93 1535.07 581.501 1535.46 581.94 1535.85 582.38 1536.42 582.725 1537.15 582.974 1537.89 583.224 1538.82 583.414 1539.93 583.544 1541.05 583.675 1542.52 583.764 1544.35 583.812L1544.35 586.414 1518.01 586.414 1518.01 583.812C1520.65 583.693 1522.53 583.533 1523.66 583.331 1524.79 583.129 1525.65 582.826 1526.25 582.422 1526.84 582.018 1527.27 581.447 1527.55 580.711 1527.82 579.974 1527.96 578.774 1527.96 577.111L1527.96 548.203C1527.96 547.252 1527.79 546.557 1527.46 546.118 1527.12 545.678 1526.64 545.458 1526 545.458 1525.24 545.458 1524.15 545.85 1522.75 546.635 1521.35 547.419 1519.62 548.5 1517.55 549.878L1515.98 547.134Z" fill-rule="evenodd"/><text fill="#000000" fill-opacity="0" font-family="Arial,Arial_MSFontService,sans-serif" font-size="49.2251" x="1515.98" y="580.261">1</text><path d="M1556.57 567.813 1584.81 567.813 1582.71 576.949 1579.99 576.949 1579.99 575.474C1579.99 575.198 1579.98 574.883 1579.96 574.529 1579.93 574.175 1579.89 573.822 1579.84 573.468 1579.79 573.114 1579.73 572.787 1579.66 572.485 1579.59 572.183 1579.51 571.937 1579.42 571.747 1579.3 571.506 1579.18 571.307 1579.05 571.152 1578.92 570.997 1578.76 570.876 1578.56 570.79 1578.36 570.703 1578.12 570.643 1577.85 570.608 1577.57 570.574 1577.22 570.557 1576.79 570.557L1572.62 570.557 1567.29 594.158C1567.1 594.952 1566.96 595.629 1566.89 596.19 1566.81 596.75 1566.77 597.255 1566.77 597.704 1566.79 598.049 1566.84 598.346 1566.93 598.596 1567.01 598.847 1567.17 599.058 1567.39 599.23 1567.62 599.403 1567.92 599.532 1568.3 599.619 1568.68 599.705 1569.17 599.765 1569.77 599.8L1569.41 601.378 1557.97 601.378 1558.31 599.8C1558.74 599.696 1559.11 599.606 1559.42 599.528 1559.73 599.45 1560 599.347 1560.22 599.218 1560.45 599.088 1560.64 598.911 1560.81 598.687 1560.97 598.463 1561.13 598.156 1561.28 597.768 1561.44 597.38 1561.59 596.875 1561.75 596.254 1561.9 595.633 1562.09 594.866 1562.29 593.951L1567.52 570.557 1563.95 570.557C1563.38 570.557 1562.9 570.574 1562.5 570.608 1562.1 570.643 1561.74 570.733 1561.41 570.88 1561.09 571.027 1560.78 571.229 1560.49 571.488 1560.21 571.747 1559.92 572.101 1559.61 572.549 1559.31 572.998 1558.98 573.55 1558.63 574.206 1558.28 574.861 1557.87 575.646 1557.4 576.561L1554.63 576.561Z" fill-rule="evenodd"/><text fill="#000000" fill-opacity="0" font-family="Arial,Arial_MSFontService,sans-serif" font-size="33.5649" x="1554.63" y="597.183">ğ‘‡</text><path d="M1596.04 590.474 1597.85 590.474 1594.65 605.127C1594.43 606.115 1594.28 606.845 1594.2 607.318 1594.11 607.791 1594.07 608.235 1594.07 608.65 1594.07 609.667 1594.54 610.176 1595.49 610.176 1596.07 610.176 1596.67 609.946 1597.27 609.488 1597.87 609.03 1598.59 608.349 1599.44 607.447L1601.05 609.015C1599.55 610.519 1598.24 611.615 1597.12 612.302 1596 612.99 1594.83 613.334 1593.62 613.334 1592.44 613.334 1591.49 612.929 1590.75 612.12 1590.01 611.311 1589.64 610.297 1589.64 609.08 1589.64 607.92 1589.86 606.308 1590.31 604.246L1591.96 596.92C1592.15 596.089 1592.27 595.459 1592.33 595.029 1592.38 594.599 1592.41 594.22 1592.41 593.89 1592.41 593.375 1592.19 593.01 1591.75 592.795 1591.3 592.58 1590.61 592.451 1589.66 592.408L1589.99 590.754ZM1595.16 581.558 1599.85 581.558 1598.77 586.457 1594.07 586.457Z" fill-rule="evenodd"/><text fill="#000000" fill-opacity="0" font-family="Arial,Arial_MSFontService,sans-serif" font-size="31.7754" x="1589.64" y="609.362">ğ‘–</text><path d="M1607.83 570.065 1640.05 584.169 1640.05 588.361 1607.83 602.181 1607.83 597.678 1635.11 586.265 1607.83 574.568Z" fill-rule="evenodd"/><text fill="#000000" fill-opacity="0" font-family="Arial,Arial_MSFontService,sans-serif" font-size="32.1157" x="1607.83" y="598.166">&gt;</text><path d="M1647.6 567.813 1675.83 567.813 1673.74 576.949 1671.02 576.949 1671.02 575.474C1671.02 575.198 1671.01 574.883 1670.98 574.529 1670.95 574.175 1670.92 573.822 1670.86 573.468 1670.81 573.114 1670.75 572.787 1670.68 572.485 1670.61 572.183 1670.54 571.937 1670.45 571.747 1670.33 571.506 1670.2 571.307 1670.07 571.152 1669.95 570.997 1669.78 570.876 1669.58 570.79 1669.38 570.703 1669.15 570.643 1668.87 570.608 1668.6 570.574 1668.24 570.557 1667.81 570.557L1663.64 570.557 1658.31 594.158C1658.12 594.952 1657.99 595.629 1657.91 596.19 1657.83 596.75 1657.8 597.255 1657.8 597.704 1657.81 598.049 1657.86 598.346 1657.95 598.596 1658.04 598.847 1658.19 599.058 1658.42 599.23 1658.64 599.403 1658.94 599.532 1659.32 599.619 1659.7 599.705 1660.19 599.765 1660.8 599.8L1660.43 601.378 1649 601.378 1649.33 599.8C1649.76 599.696 1650.14 599.606 1650.45 599.528 1650.76 599.45 1651.02 599.347 1651.25 599.218 1651.47 599.088 1651.67 598.911 1651.83 598.687 1651.99 598.463 1652.15 598.156 1652.31 597.768 1652.46 597.38 1652.62 596.875 1652.77 596.254 1652.93 595.633 1653.11 594.866 1653.32 593.951L1658.55 570.557 1654.97 570.557C1654.41 570.557 1653.92 570.574 1653.53 570.608 1653.13 570.643 1652.77 570.733 1652.44 570.88 1652.11 571.027 1651.8 571.229 1651.52 571.488 1651.23 571.747 1650.94 572.101 1650.64 572.549 1650.34 572.998 1650.01 573.55 1649.66 574.206 1649.3 574.861 1648.89 575.646 1648.43 576.561L1645.66 576.561Z" fill-rule="evenodd"/><text fill="#000000" fill-opacity="0" font-family="Arial,Arial_MSFontService,sans-serif" font-size="33.5649" x="1645.66" y="597.183">ğ‘‡</text><path d="M1692.85 590.474 1694.5 590.474 1689.71 612.947C1689.01 616.241 1687.82 618.605 1686.13 620.037 1684.45 621.469 1682.18 622.185 1679.31 622.185 1678.47 622.185 1677.74 622.107 1677.14 621.949L1677.72 619.5C1678.15 619.629 1678.73 619.693 1679.46 619.693 1680.49 619.693 1681.33 619.503 1681.98 619.124 1682.62 618.744 1683.2 618.085 1683.72 617.147 1684.23 616.209 1684.68 614.866 1685.07 613.119L1688.62 596.92C1688.93 595.53 1689.09 594.506 1689.09 593.847 1689.09 593.36 1688.88 593.01 1688.45 592.795 1688.03 592.58 1687.33 592.451 1686.34 592.408L1686.66 590.754ZM1691.84 581.558 1696.52 581.558 1695.43 586.457 1690.74 586.457Z" fill-rule="evenodd"/><text fill="#000000" fill-opacity="0" font-family="Arial,Arial_MSFontService,sans-serif" font-size="40.627" x="1677.14" y="617.107">ğ‘—</text><path d="M1726.42 554.548C1724 554.548 1721.83 555.528 1719.9 557.488 1717.98 559.449 1716.46 562.092 1715.36 565.419 1714.25 568.746 1713.7 572.061 1713.7 575.364 1713.7 577.835 1714.04 579.683 1714.72 580.907 1715.39 582.131 1716.53 582.742 1718.12 582.742 1718.86 582.742 1719.6 582.582 1720.37 582.261 1721.13 581.94 1721.92 581.424 1722.74 580.711 1723.56 579.998 1724.36 579.13 1725.16 578.109 1725.96 577.087 1726.69 576.059 1727.35 575.025 1728.02 573.992 1728.63 572.768 1729.2 571.354 1729.78 569.94 1730.26 568.235 1730.67 566.239L1730.99 564.706C1731.34 562.995 1731.52 561.379 1731.52 559.859 1731.52 558.005 1731.13 556.657 1730.35 555.813 1729.56 554.969 1728.25 554.548 1726.42 554.548ZM1741.36 535.442 1743.46 535.442 1734.59 574.901C1734.06 577.229 1733.8 578.988 1733.8 580.176 1733.8 581.127 1733.96 581.816 1734.27 582.243 1734.58 582.671 1735.06 582.885 1735.73 582.885 1736.44 582.885 1737.2 582.594 1738.01 582.012 1738.82 581.43 1739.96 580.319 1741.43 578.679L1743.46 580.675C1741.28 582.98 1739.43 584.608 1737.94 585.558 1736.44 586.509 1734.82 586.984 1733.09 586.984 1731.62 586.984 1730.44 586.497 1729.56 585.523 1728.68 584.548 1728.24 583.253 1728.24 581.637 1728.24 580.331 1728.52 578.94 1729.06 577.467L1728.6 577.324C1726.32 580.651 1724.16 583.087 1722.11 584.632 1720.07 586.176 1717.91 586.948 1715.62 586.948 1713.01 586.948 1710.98 585.962 1709.55 583.99 1708.11 582.018 1707.39 579.249 1707.39 575.685 1707.39 571.598 1708.19 567.671 1709.8 563.904 1711.4 560.138 1713.6 557.167 1716.41 554.993 1719.21 552.819 1722.34 551.732 1725.78 551.732 1727.23 551.732 1728.57 551.88 1729.79 552.177 1731.02 552.474 1732.27 552.991 1733.55 553.728L1735.41 545.494C1735.6 544.71 1735.76 543.842 1735.91 542.892 1736.05 541.941 1736.12 541.11 1736.12 540.397 1736.12 539.684 1735.99 539.143 1735.73 538.775 1735.47 538.407 1735.09 538.139 1734.61 537.973 1734.12 537.807 1733.24 537.688 1731.99 537.616L1732.41 535.763Z" fill-rule="evenodd"/><text fill="#000000" fill-opacity="0" font-family="Arial,Arial_MSFontService,sans-serif" font-size="51.542" x="1707.39" y="580.541">ğ‘‘</text><path d="M1758.3 575.215 1760.08 575.215 1754.7 600.576C1754.27 602.543 1753.71 604.229 1753.03 605.635 1752.35 607.042 1751.52 608.193 1750.53 609.09 1749.55 609.987 1748.4 610.647 1747.09 611.07 1745.78 611.493 1744.28 611.704 1742.59 611.704 1742.14 611.704 1741.71 611.683 1741.3 611.639 1740.88 611.596 1740.51 611.532 1740.18 611.445L1740.83 608.728C1741.04 608.814 1741.31 608.87 1741.66 608.896 1742 608.922 1742.4 608.935 1742.85 608.935 1743.69 608.935 1744.45 608.823 1745.11 608.599 1745.78 608.374 1746.37 607.969 1746.9 607.382 1747.42 606.796 1747.9 605.989 1748.32 604.963 1748.74 603.936 1749.14 602.621 1749.5 601.016 1750.1 598.221 1750.68 595.599 1751.23 593.149 1751.78 590.699 1752.24 588.646 1752.59 586.99 1752.94 585.333 1753.23 584.014 1753.43 583.03 1753.64 582.047 1753.79 581.288 1753.89 580.753 1753.98 580.218 1754.04 579.839 1754.05 579.614 1754.07 579.39 1754.08 579.209 1754.08 579.071 1754.08 578.467 1753.85 578.023 1753.39 577.738 1752.94 577.453 1752.13 577.294 1750.97 577.259L1751.36 575.5ZM1757.34 564.786 1762.54 564.786 1761.27 570.35 1756.07 570.35Z" fill-rule="evenodd"/><text fill="#000000" fill-opacity="0" font-family="Arial,Arial_MSFontService,sans-serif" font-size="46.9185" x="1740.18" y="605.839">ğ‘—</text><path d="M1229.41 578.171 1230.68 578.171 1226.85 595.406C1226.61 596.424 1226.44 597.235 1226.34 597.839 1226.25 598.443 1226.2 598.986 1226.2 599.469 1226.2 600.125 1226.34 600.599 1226.6 600.893 1226.87 601.186 1227.27 601.333 1227.81 601.333 1228.12 601.333 1228.43 601.272 1228.74 601.152 1229.05 601.031 1229.38 600.841 1229.73 600.582 1230.09 600.323 1230.48 599.991 1230.9 599.586 1231.32 599.18 1231.79 598.693 1232.31 598.124L1234.07 599.832C1233.17 600.746 1232.36 601.518 1231.62 602.148 1230.89 602.778 1230.2 603.291 1229.54 603.688 1228.89 604.084 1228.24 604.369 1227.61 604.542 1226.98 604.714 1226.31 604.8 1225.61 604.8 1224.95 604.8 1224.36 604.68 1223.83 604.438 1223.31 604.197 1222.86 603.865 1222.48 603.442 1222.1 603.019 1221.8 602.515 1221.6 601.928 1221.39 601.341 1221.29 600.694 1221.29 599.987 1221.29 599.418 1221.35 598.71 1221.49 597.865 1221.63 597.02 1221.81 596.101 1222.02 595.109 1222.24 594.117 1222.48 593.077 1222.73 591.99 1222.99 590.904 1223.25 589.825 1223.5 588.756 1223.75 587.686 1223.97 586.655 1224.17 585.663 1224.37 584.671 1224.51 583.77 1224.6 582.959 1224.63 582.821 1224.65 582.687 1224.65 582.558 1224.65 582.428 1224.65 582.312 1224.65 582.208 1224.62 581.535 1224.38 581.044 1223.94 580.733 1223.5 580.423 1222.72 580.25 1221.6 580.216L1221.91 578.456ZM1227.91 567.742 1233.09 567.742 1231.82 573.306 1226.69 573.306Z" fill-rule="evenodd"/><text fill="#000000" fill-opacity="0" font-family="Arial,Arial_MSFontService,sans-serif" font-size="37.0586" x="1221.29" y="600.168">ğ‘–</text><path d="M1261.87 574.652 1265.45 574.652 1262.44 581.587 1271.92 581.587 1271.92 585.547 1260.71 585.547 1257.55 592.844 1271.92 592.844 1271.92 596.804 1255.82 596.804 1252.84 603.688 1249.25 603.688 1252.22 596.804 1242.1 596.804 1242.1 592.844 1253.96 592.844 1257.11 585.547 1242.1 585.547 1242.1 581.587 1258.85 581.587Z" fill-rule="evenodd"/><text fill="#000000" fill-opacity="0" font-family="Arial,Arial_MSFontService,sans-serif" font-size="29.0361" x="1242.1" y="600.058">â‰ </text><path d="M1295.45 578.171 1297.24 578.171 1291.85 603.532C1291.42 605.499 1290.86 607.186 1290.18 608.592 1289.5 609.998 1288.67 611.149 1287.69 612.047 1286.7 612.944 1285.56 613.604 1284.24 614.026 1282.93 614.449 1281.43 614.66 1279.74 614.66 1279.29 614.66 1278.86 614.639 1278.45 614.596 1278.03 614.552 1277.66 614.488 1277.33 614.402L1277.98 611.684C1278.19 611.771 1278.46 611.827 1278.81 611.852 1279.15 611.878 1279.55 611.891 1280 611.891 1280.85 611.891 1281.6 611.779 1282.26 611.555 1282.93 611.331 1283.52 610.925 1284.05 610.339 1284.58 609.752 1285.05 608.945 1285.47 607.919 1285.9 606.892 1286.29 605.577 1286.65 603.972 1287.25 601.177 1287.83 598.555 1288.38 596.105 1288.94 593.655 1289.39 591.602 1289.74 589.946 1290.1 588.29 1290.38 586.97 1290.58 585.987 1290.79 585.003 1290.94 584.244 1291.04 583.709 1291.13 583.174 1291.19 582.795 1291.21 582.57 1291.22 582.346 1291.23 582.165 1291.23 582.027 1291.23 581.423 1291 580.979 1290.55 580.694 1290.09 580.41 1289.28 580.25 1288.13 580.216L1288.51 578.456ZM1294.49 567.742 1299.69 567.742 1298.43 573.306 1293.22 573.306Z" fill-rule="evenodd"/><text fill="#000000" fill-opacity="0" font-family="Arial,Arial_MSFontService,sans-serif" font-size="46.9185" x="1277.33" y="608.796">ğ‘—</text><path d="M1256.14 649.852 1300.16 649.852 1300.16 665.714 1296.32 665.714C1295.72 663.457 1295.16 661.615 1294.62 660.189 1294.09 658.763 1293.54 657.635 1292.98 656.803 1292.42 655.971 1291.85 655.336 1291.27 654.896 1290.69 654.456 1290.02 654.124 1289.26 653.898 1288.5 653.672 1287.49 653.559 1286.23 653.559L1266.37 653.559 1283.73 679.901 1283.73 682.61 1264.27 709.343 1287.72 709.343C1289.2 709.343 1290.31 709.248 1291.06 709.058 1291.81 708.868 1292.45 708.577 1292.98 708.185 1293.52 707.793 1294 707.246 1294.44 706.545 1294.88 705.844 1295.31 704.876 1295.71 703.64 1296.11 702.404 1296.49 700.788 1296.85 698.792L1301.02 698.792 1299.99 716.187 1254.79 716.187 1254.79 714.191 1276.82 683.929 1256.14 651.884Z" fill-rule="evenodd"/><text fill="#000000" fill-opacity="0" font-family="Arial,Arial_MSFontService,sans-serif" font-size="66.3345" x="1254.79" y="707.895">Ïƒ</text><path d="M1443.84 654.66 1445.8 654.66C1445.65 656.941 1445.58 660.101 1445.58 664.141L1445.58 694.581C1445.58 695.96 1445.66 696.999 1445.81 697.7 1445.97 698.401 1446.24 698.972 1446.63 699.411 1447.03 699.851 1447.59 700.195 1448.33 700.445 1449.06 700.694 1449.99 700.885 1451.11 701.015 1452.22 701.146 1453.7 701.235 1455.53 701.283L1455.53 703.885 1429.19 703.885 1429.19 701.283C1431.82 701.164 1433.71 701.003 1434.84 700.801 1435.97 700.599 1436.83 700.296 1437.42 699.892 1438.01 699.488 1438.45 698.918 1438.72 698.182 1438.99 697.445 1439.13 696.245 1439.13 694.581L1439.13 665.674C1439.13 664.723 1438.97 664.028 1438.63 663.589 1438.3 663.149 1437.81 662.929 1437.17 662.929 1436.41 662.929 1435.33 663.321 1433.93 664.105 1432.53 664.89 1430.79 665.971 1428.72 667.349L1427.16 664.604Z" fill-rule="evenodd"/><text fill="#000000" fill-opacity="0" font-family="Arial,Arial_MSFontService,sans-serif" font-size="49.2251" x="1427.16" y="697.732">1</text><path d="M1467.75 685.284 1495.98 685.284 1493.89 694.42 1491.17 694.42 1491.17 692.944C1491.17 692.668 1491.16 692.354 1491.13 692 1491.1 691.646 1491.07 691.293 1491.01 690.939 1490.96 690.585 1490.9 690.257 1490.83 689.955 1490.76 689.654 1490.69 689.408 1490.6 689.218 1490.48 688.976 1490.35 688.778 1490.22 688.623 1490.1 688.467 1489.93 688.347 1489.73 688.26 1489.53 688.174 1489.3 688.114 1489.02 688.079 1488.75 688.045 1488.39 688.027 1487.96 688.027L1483.79 688.027 1478.46 711.629C1478.27 712.423 1478.14 713.1 1478.06 713.661 1477.98 714.221 1477.95 714.726 1477.95 715.174 1477.96 715.519 1478.01 715.817 1478.1 716.067 1478.19 716.317 1478.34 716.529 1478.57 716.701 1478.79 716.874 1479.09 717.003 1479.47 717.089 1479.85 717.176 1480.34 717.236 1480.95 717.271L1480.58 718.849 1469.15 718.849 1469.48 717.271C1469.91 717.167 1470.29 717.077 1470.6 716.999 1470.91 716.921 1471.17 716.818 1471.4 716.688 1471.62 716.559 1471.82 716.382 1471.98 716.158 1472.14 715.934 1472.3 715.627 1472.46 715.239 1472.61 714.851 1472.77 714.346 1472.92 713.725 1473.08 713.104 1473.26 712.336 1473.47 711.422L1478.7 688.027 1475.12 688.027C1474.56 688.027 1474.07 688.045 1473.68 688.079 1473.28 688.114 1472.92 688.204 1472.59 688.351 1472.26 688.498 1471.95 688.7 1471.67 688.959 1471.38 689.218 1471.09 689.572 1470.79 690.02 1470.49 690.469 1470.16 691.021 1469.81 691.676 1469.45 692.332 1469.04 693.117 1468.58 694.031L1465.81 694.031Z" fill-rule="evenodd"/><text fill="#000000" fill-opacity="0" font-family="Arial,Arial_MSFontService,sans-serif" font-size="33.5649" x="1465.81" y="714.654">ğ‘‡</text><path d="M1507.22 707.945 1509.02 707.945 1505.82 722.598C1505.61 723.586 1505.46 724.316 1505.37 724.789 1505.29 725.262 1505.24 725.706 1505.24 726.121 1505.24 727.138 1505.72 727.646 1506.66 727.646 1507.25 727.646 1507.84 727.417 1508.44 726.959 1509.05 726.501 1509.77 725.82 1510.61 724.918L1512.22 726.486C1510.72 727.99 1509.41 729.086 1508.29 729.773 1507.18 730.461 1506.01 730.805 1504.79 730.805 1503.62 730.805 1502.66 730.4 1501.92 729.591 1501.19 728.781 1500.82 727.768 1500.82 726.551 1500.82 725.391 1501.04 723.779 1501.48 721.717L1503.14 714.391C1503.32 713.56 1503.45 712.93 1503.5 712.5 1503.56 712.07 1503.59 711.691 1503.59 711.361 1503.59 710.846 1503.37 710.48 1502.92 710.266 1502.48 710.051 1501.78 709.922 1500.84 709.879L1501.16 708.224ZM1506.34 699.029 1511.02 699.029 1509.95 703.928 1505.24 703.928Z" fill-rule="evenodd"/><text fill="#000000" fill-opacity="0" font-family="Arial,Arial_MSFontService,sans-serif" font-size="31.7754" x="1500.82" y="726.833">ğ‘–</text><path d="M1519.01 687.536 1551.23 701.64 1551.23 705.832 1519.01 719.651 1519.01 715.149 1546.29 703.736 1519.01 692.039Z" fill-rule="evenodd"/><text fill="#000000" fill-opacity="0" font-family="Arial,Arial_MSFontService,sans-serif" font-size="32.1157" x="1519.01" y="715.637">&gt;</text><path d="M1558.77 685.284 1587.01 685.284 1584.91 694.42 1582.19 694.42 1582.19 692.944C1582.19 692.668 1582.18 692.354 1582.16 692 1582.13 691.646 1582.09 691.293 1582.04 690.939 1581.99 690.585 1581.93 690.257 1581.86 689.955 1581.79 689.654 1581.71 689.408 1581.62 689.218 1581.5 688.976 1581.38 688.778 1581.25 688.623 1581.12 688.467 1580.96 688.347 1580.76 688.26 1580.56 688.174 1580.32 688.114 1580.05 688.079 1579.77 688.045 1579.42 688.027 1578.99 688.027L1574.82 688.027 1569.49 711.629C1569.3 712.423 1569.16 713.1 1569.09 713.661 1569.01 714.221 1568.97 714.726 1568.97 715.174 1568.99 715.519 1569.04 715.817 1569.13 716.067 1569.21 716.317 1569.37 716.529 1569.59 716.701 1569.82 716.874 1570.12 717.003 1570.5 717.089 1570.88 717.176 1571.37 717.236 1571.97 717.271L1571.61 718.849 1560.17 718.849 1560.51 717.271C1560.94 717.167 1561.31 717.077 1561.62 716.999 1561.93 716.921 1562.2 716.818 1562.42 716.688 1562.65 716.559 1562.84 716.382 1563.01 716.158 1563.17 715.934 1563.33 715.627 1563.48 715.239 1563.64 714.851 1563.79 714.346 1563.95 713.725 1564.1 713.104 1564.29 712.336 1564.49 711.422L1569.72 688.027 1566.15 688.027C1565.58 688.027 1565.1 688.045 1564.7 688.079 1564.3 688.114 1563.94 688.204 1563.61 688.351 1563.29 688.498 1562.98 688.7 1562.69 688.959 1562.41 689.218 1562.12 689.572 1561.81 690.02 1561.51 690.469 1561.18 691.021 1560.83 691.676 1560.48 692.332 1560.07 693.117 1559.6 694.031L1556.83 694.031Z" fill-rule="evenodd"/><text fill="#000000" fill-opacity="0" font-family="Arial,Arial_MSFontService,sans-serif" font-size="33.5649" x="1556.83" y="714.654">ğ‘‡</text><path d="M1604.02 707.945 1605.68 707.945 1600.89 730.418C1600.18 733.712 1598.99 736.075 1597.31 737.508 1595.63 738.94 1593.35 739.656 1590.49 739.656 1589.64 739.656 1588.92 739.577 1588.32 739.42L1588.9 736.971C1589.33 737.099 1589.91 737.164 1590.64 737.164 1591.67 737.164 1592.51 736.974 1593.15 736.595 1593.8 736.215 1594.38 735.556 1594.89 734.618 1595.41 733.68 1595.86 732.337 1596.25 730.59L1599.79 714.391C1600.11 713.001 1600.26 711.977 1600.26 711.318 1600.26 710.831 1600.05 710.48 1599.63 710.266 1599.21 710.051 1598.5 709.922 1597.51 709.879L1597.84 708.224ZM1603.01 699.029 1607.7 699.029 1606.6 703.928 1601.92 703.928Z" fill-rule="evenodd"/><text fill="#000000" fill-opacity="0" font-family="Arial,Arial_MSFontService,sans-serif" font-size="40.627" x="1588.32" y="734.578">ğ‘—</text><path d="M1637.6 672.018C1635.18 672.018 1633 672.999 1631.08 674.959 1629.15 676.92 1627.64 679.563 1626.53 682.89 1625.43 686.217 1624.87 689.532 1624.87 692.835 1624.87 695.306 1625.21 697.154 1625.89 698.378 1626.57 699.601 1627.7 700.213 1629.29 700.213 1630.03 700.213 1630.78 700.053 1631.54 699.732 1632.3 699.411 1633.09 698.894 1633.91 698.182 1634.73 697.469 1635.54 696.601 1636.33 695.579 1637.13 694.558 1637.86 693.53 1638.53 692.496 1639.19 691.463 1639.81 690.239 1640.38 688.825 1640.95 687.411 1641.44 685.706 1641.84 683.71L1642.16 682.177C1642.52 680.466 1642.7 678.85 1642.7 677.329 1642.7 675.476 1642.3 674.127 1641.52 673.284 1640.74 672.44 1639.43 672.018 1637.6 672.018ZM1652.53 652.913 1654.64 652.913 1645.76 692.371C1645.24 694.7 1644.98 696.459 1644.98 697.647 1644.98 698.597 1645.13 699.286 1645.44 699.714 1645.75 700.142 1646.24 700.356 1646.9 700.356 1647.62 700.356 1648.38 700.065 1649.18 699.483 1649.99 698.9 1651.13 697.789 1652.61 696.15L1654.64 698.146C1652.45 700.451 1650.61 702.079 1649.11 703.029 1647.62 703.98 1646 704.455 1644.27 704.455 1642.79 704.455 1641.62 703.968 1640.74 702.994 1639.86 702.019 1639.42 700.724 1639.42 699.108 1639.42 697.801 1639.69 696.411 1640.24 694.938L1639.77 694.795C1637.49 698.122 1635.33 700.558 1633.29 702.102 1631.24 703.647 1629.08 704.419 1626.8 704.419 1624.19 704.419 1622.16 703.433 1620.72 701.461 1619.28 699.488 1618.57 696.72 1618.57 693.156 1618.57 689.068 1619.37 685.142 1620.97 681.375 1622.58 677.609 1624.78 674.638 1627.58 672.464 1630.39 670.29 1633.51 669.203 1636.96 669.203 1638.41 669.203 1639.74 669.351 1640.97 669.648 1642.19 669.945 1643.45 670.462 1644.73 671.199L1646.58 662.965C1646.77 662.181 1646.94 661.313 1647.08 660.363 1647.22 659.412 1647.3 658.58 1647.3 657.868 1647.3 657.155 1647.16 656.614 1646.9 656.246 1646.64 655.877 1646.27 655.61 1645.78 655.444 1645.29 655.277 1644.42 655.159 1643.16 655.087L1643.59 653.234Z" fill-rule="evenodd"/><text fill="#000000" fill-opacity="0" font-family="Arial,Arial_MSFontService,sans-serif" font-size="51.542" x="1618.57" y="698.012">ğ‘‘</text><path d="M1669.47 692.686 1671.26 692.686 1665.88 718.047C1665.44 720.014 1664.89 721.7 1664.21 723.106 1663.52 724.512 1662.69 725.664 1661.71 726.561 1660.73 727.458 1659.58 728.118 1658.27 728.541 1656.96 728.964 1655.45 729.175 1653.76 729.175 1653.32 729.175 1652.88 729.153 1652.47 729.11 1652.06 729.067 1651.69 729.002 1651.36 728.916L1652 726.199C1652.21 726.285 1652.49 726.341 1652.83 726.367 1653.18 726.393 1653.57 726.406 1654.02 726.406 1654.87 726.406 1655.62 726.294 1656.29 726.069 1656.95 725.845 1657.55 725.44 1658.07 724.853 1658.6 724.267 1659.07 723.46 1659.5 722.433 1659.92 721.407 1660.31 720.091 1660.67 718.487 1661.28 715.692 1661.86 713.07 1662.41 710.62 1662.96 708.17 1663.41 706.117 1663.77 704.461 1664.12 702.804 1664.4 701.484 1664.61 700.501 1664.81 699.518 1664.97 698.759 1665.06 698.224 1665.16 697.689 1665.21 697.309 1665.23 697.085 1665.25 696.861 1665.25 696.68 1665.25 696.542 1665.25 695.938 1665.03 695.494 1664.57 695.209 1664.11 694.924 1663.3 694.765 1662.15 694.73L1662.54 692.97ZM1668.52 682.256 1673.72 682.256 1672.45 687.82 1667.25 687.82Z" fill-rule="evenodd"/><text fill="#000000" fill-opacity="0" font-family="Arial,Arial_MSFontService,sans-serif" font-size="46.9185" x="1651.36" y="723.31">ğ‘—</text><path d="M1318.24 698.071 1319.5 698.071 1315.67 715.306C1315.43 716.324 1315.26 717.135 1315.17 717.739 1315.07 718.343 1315.03 718.886 1315.03 719.369 1315.03 720.025 1315.16 720.5 1315.43 720.793 1315.7 721.086 1316.1 721.233 1316.63 721.233 1316.94 721.233 1317.25 721.172 1317.56 721.052 1317.87 720.931 1318.21 720.741 1318.56 720.482 1318.91 720.223 1319.3 719.891 1319.72 719.486 1320.15 719.08 1320.62 718.593 1321.13 718.024L1322.89 719.732C1322 720.646 1321.18 721.418 1320.45 722.048 1319.72 722.678 1319.02 723.191 1318.37 723.588 1317.71 723.984 1317.07 724.269 1316.44 724.442 1315.81 724.614 1315.14 724.701 1314.43 724.701 1313.78 724.701 1313.19 724.58 1312.66 724.338 1312.13 724.097 1311.68 723.765 1311.3 723.342 1310.92 722.919 1310.63 722.415 1310.42 721.828 1310.21 721.241 1310.11 720.594 1310.11 719.887 1310.11 719.318 1310.18 718.61 1310.32 717.765 1310.46 716.92 1310.63 716.001 1310.85 715.009 1311.06 714.017 1311.3 712.977 1311.56 711.89 1311.82 710.804 1312.07 709.725 1312.32 708.656 1312.57 707.586 1312.8 706.555 1313 705.563 1313.19 704.571 1313.34 703.67 1313.42 702.859 1313.46 702.721 1313.47 702.587 1313.47 702.458 1313.47 702.328 1313.47 702.212 1313.47 702.108 1313.44 701.435 1313.2 700.944 1312.76 700.633 1312.32 700.323 1311.54 700.15 1310.42 700.116L1310.73 698.356ZM1316.74 687.642 1321.91 687.642 1320.64 693.206 1315.52 693.206Z" fill-rule="evenodd"/><text fill="#000000" fill-opacity="0" font-family="Arial,Arial_MSFontService,sans-serif" font-size="37.0586" x="1310.11" y="720.068">ğ‘–</text><path d="M1350.7 694.552 1354.27 694.552 1351.27 701.487 1360.74 701.487 1360.74 705.447 1349.53 705.447 1346.38 712.744 1360.74 712.744 1360.74 716.704 1344.64 716.704 1341.67 723.588 1338.07 723.588 1341.05 716.704 1330.93 716.704 1330.93 712.744 1342.78 712.744 1345.94 705.447 1330.93 705.447 1330.93 701.487 1347.67 701.487Z" fill-rule="evenodd"/><text fill="#000000" fill-opacity="0" font-family="Arial,Arial_MSFontService,sans-serif" font-size="29.0361" x="1330.93" y="719.958">â‰ </text><path d="M1384.27 698.071 1386.06 698.071 1380.68 723.432C1380.25 725.399 1379.69 727.086 1379.01 728.492 1378.33 729.898 1377.49 731.049 1376.51 731.947 1375.53 732.844 1374.38 733.504 1373.07 733.926 1371.76 734.349 1370.26 734.56 1368.57 734.56 1368.12 734.56 1367.69 734.539 1367.27 734.496 1366.86 734.453 1366.49 734.388 1366.16 734.302L1366.81 731.584C1367.01 731.671 1367.29 731.727 1367.63 731.753 1367.98 731.778 1368.38 731.791 1368.82 731.791 1369.67 731.791 1370.43 731.679 1371.09 731.455 1371.75 731.231 1372.35 730.825 1372.88 730.239 1373.4 729.652 1373.88 728.845 1374.3 727.819 1374.72 726.792 1375.11 725.477 1375.48 723.872 1376.08 721.077 1376.66 718.455 1377.21 716.005 1377.76 713.555 1378.21 711.502 1378.57 709.846 1378.92 708.19 1379.2 706.87 1379.41 705.887 1379.62 704.903 1379.77 704.144 1379.86 703.609 1379.96 703.074 1380.01 702.695 1380.03 702.471 1380.05 702.246 1380.06 702.065 1380.06 701.927 1380.06 701.323 1379.83 700.879 1379.37 700.594 1378.91 700.31 1378.11 700.15 1376.95 700.116L1377.34 698.356ZM1383.32 687.642 1388.52 687.642 1387.25 693.206 1382.05 693.206Z" fill-rule="evenodd"/><text fill="#000000" fill-opacity="0" font-family="Arial,Arial_MSFontService,sans-serif" font-size="46.9185" x="1366.16" y="728.696">ğ‘—</text><path d="M1165.19 631.812 1366.85 631.812 1568.52 631.812 1770.19 631.812 1770.19 636.812 1568.52 636.812 1366.85 636.812 1165.19 636.812Z" fill-rule="evenodd"/><text font-family="Verdana,Verdana_MSFontService,sans-serif" font-weight="400" font-size="55" transform="matrix(1 0 0 1 765.187 795)">p</text><text font-family="Verdana,Verdana_MSFontService,sans-serif" font-weight="400" font-size="55" transform="matrix(1 0 0 1 819.042 795)">=</text><text font-family="Verdana,Verdana_MSFontService,sans-serif" font-weight="400" font-size="55" transform="matrix(1 0 0 1 883.781 795)">risk</text><text font-family="Verdana,Verdana_MSFontService,sans-serif" font-weight="400" font-size="55" transform="matrix(1 0 0 1 1002.95 795)">score</text><text font-family="Verdana,Verdana_MSFontService,sans-serif" font-weight="400" font-size="55" transform="matrix(1 0 0 1 765.187 861)">T</text><text font-family="Verdana,Verdana_MSFontService,sans-serif" font-weight="400" font-size="55" transform="matrix(1 0 0 1 818.469 861)">=</text><text font-family="Verdana,Verdana_MSFontService,sans-serif" font-weight="400" font-size="55" transform="matrix(1 0 0 1 883.208 861)">time</text><text font-family="Verdana,Verdana_MSFontService,sans-serif" font-weight="400" font-size="55" transform="matrix(1 0 0 1 1005.81 861)">-</text><text font-family="Verdana,Verdana_MSFontService,sans-serif" font-weight="400" font-size="55" transform="matrix(1 0 0 1 1031.02 861)">to</text><text font-family="Verdana,Verdana_MSFontService,sans-serif" font-weight="400" font-size="55" transform="matrix(1 0 0 1 1086.02 861)">-</text><text font-family="Verdana,Verdana_MSFontService,sans-serif" font-weight="400" font-size="55" transform="matrix(1 0 0 1 1111.23 861)">event</text><text font-family="Verdana,Verdana_MSFontService,sans-serif" font-weight="400" font-size="55" transform="matrix(1 0 0 1 765.187 927)">d</text><text font-family="Verdana,Verdana_MSFontService,sans-serif" font-weight="400" font-size="55" transform="matrix(1 0 0 1 819.042 927)">=</text><text font-family="Verdana,Verdana_MSFontService,sans-serif" font-weight="400" font-size="55" transform="matrix(1 0 0 1 883.781 927)">event</text><text font-family="Verdana,Verdana_MSFontService,sans-serif" font-weight="400" font-size="55" transform="matrix(1 0 0 1 1057.47 927)">indicator</text><text font-family="Verdana,Verdana_MSFontService,sans-serif" font-weight="400" font-size="55" transform="matrix(1 0 0 1 1316.42 927)">(</text><text font-family="Verdana,Verdana_MSFontService,sans-serif" font-weight="400" font-size="55" transform="matrix(1 0 0 1 1341.63 927)">1</text><text font-family="Verdana,Verdana_MSFontService,sans-serif" font-weight="400" font-size="55" transform="matrix(1 0 0 1 1376.58 927)">=progressed)</text></g></svg>